<?xml version="1.0" standalone="no"?>
<!DOCTYPE svg PUBLIC "-//W3C//DTD SVG 20010904//EN"
 "http://www.w3.org/TR/2001/REC-SVG-20010904/DTD/svg10.dtd">
<svg version="1.0" xmlns="http://www.w3.org/2000/svg"
 width="700.000000pt" height="700.000000pt" viewBox="0 0 700.000000 700.000000"
 preserveAspectRatio="xMidYMid meet">
<metadata>
Created by potrace 1.11, written by Peter Selinger 2001-2013
</metadata>
<g transform="translate(0.000000,700.000000) scale(0.100000,-0.100000)"
fill="#000000" stroke="none">
<path d="M3403 6733 c-61 -21 -136 -92 -163 -155 -52 -118 -22 -258 72 -343
27 -24 64 -49 83 -55 l35 -12 0 -198 0 -198 -67 -6 c-214 -19 -435 -65 -607
-126 -48 -17 -90 -30 -92 -27 -2 2 -42 91 -89 198 -54 123 -89 193 -97 191 -7
-2 -39 -15 -71 -29 -47 -21 -56 -29 -51 -45 3 -11 41 -101 85 -201 43 -99 79
-182 79 -183 0 -3 -267 -154 -273 -154 -3 0 -62 79 -132 175 -70 96 -130 175
-132 175 -16 0 -122 -87 -118 -97 2 -6 58 -86 124 -177 67 -91 121 -170 121
-175 0 -5 -21 -26 -47 -47 -138 -111 -290 -277 -402 -439 -34 -49 -66 -90 -70
-90 -4 0 -85 42 -178 94 l-171 94 -4 86 c-3 72 -9 95 -33 140 -54 98 -153 147
-279 139 -184 -12 -309 -166 -276 -340 28 -145 127 -237 266 -246 81 -5 129 7
190 49 l41 28 169 -96 c93 -52 171 -97 173 -99 2 -2 -14 -43 -37 -91 -83 -177
-138 -343 -182 -548 -11 -54 -23 -101 -25 -103 -2 -2 -99 6 -215 18 -116 12
-213 20 -215 18 -1 -2 -6 -38 -10 -80 -5 -63 -4 -78 7 -78 8 0 101 -9 208 -20
107 -11 198 -20 203 -20 6 0 7 -44 3 -107 -5 -68 -3 -126 4 -157 6 -27 9 -50
8 -51 -2 -1 -79 -10 -173 -19 -93 -9 -192 -19 -218 -23 l-48 -6 6 -76 c4 -42
9 -77 10 -79 2 -2 99 6 215 18 116 12 214 20 216 17 2 -2 11 -40 18 -83 33
-186 88 -354 179 -547 27 -59 48 -109 46 -111 -2 -2 -80 -46 -173 -99 l-169
-96 -41 28 c-148 101 -344 53 -425 -104 -61 -119 -40 -266 51 -351 64 -61 113
-79 213 -79 80 0 95 3 135 27 104 61 155 150 153 264 l-1 71 169 96 c93 54
171 97 173 97 2 0 16 -20 31 -45 68 -117 261 -336 400 -456 47 -40 85 -76 85
-80 0 -3 -56 -84 -125 -178 -69 -95 -125 -175 -125 -179 0 -4 28 -27 62 -51
58 -43 61 -44 75 -25 8 10 64 88 125 172 61 84 114 155 119 157 4 3 69 -29
143 -71 l134 -77 -30 -71 c-17 -39 -55 -126 -84 -194 -30 -68 -54 -127 -54
-132 0 -4 6 -10 13 -13 6 -3 37 -17 68 -30 l57 -26 82 192 c46 106 86 196 90
200 4 5 47 -6 96 -23 180 -63 382 -105 607 -125 l67 -7 0 -197 0 -198 -44 -17
c-57 -22 -122 -85 -149 -144 -31 -68 -31 -189 1 -253 48 -99 136 -158 247
-167 180 -14 319 114 319 293 0 51 -7 84 -24 123 -26 60 -102 135 -155 152
l-35 12 0 198 0 198 68 6 c212 19 443 67 604 126 45 17 85 30 89 30 5 0 99
-209 166 -367 l13 -32 67 30 c37 17 69 32 71 34 3 3 -41 107 -164 391 -4 9
250 164 269 164 2 0 62 -79 132 -175 70 -97 130 -175 134 -173 32 14 119 86
116 95 -2 6 -58 86 -124 178 -67 91 -121 170 -121 175 0 4 35 38 79 74 139
116 287 283 396 449 21 32 41 56 45 55 4 -2 82 -46 173 -98 l167 -95 0 -77 c0
-67 4 -84 33 -140 54 -104 149 -155 277 -146 179 13 299 165 276 351 -26 208
-264 308 -442 186 l-41 -28 -169 96 c-93 53 -171 97 -173 99 -2 2 14 43 37 91
81 171 138 345 182 548 11 54 23 101 25 103 2 2 99 -6 215 -18 116 -12 213
-20 215 -18 1 2 6 37 10 79 l6 76 -113 12 c-62 7 -160 17 -217 23 l-103 11 6
106 c5 66 3 124 -4 155 -6 27 -9 50 -8 51 2 2 100 13 218 25 118 11 216 22
218 24 8 9 -12 156 -22 156 -6 0 -102 -9 -214 -21 -112 -11 -206 -19 -208 -16
-2 2 -11 40 -18 83 -33 186 -88 354 -179 547 -27 59 -48 109 -46 111 2 2 80
47 173 99 l169 96 41 -28 c61 -42 109 -54 190 -49 139 9 238 101 266 246 24
128 -38 250 -160 313 -38 20 -60 24 -135 24 -103 0 -144 -16 -206 -82 -62 -65
-83 -117 -82 -204 l0 -76 -169 -97 c-94 -54 -171 -96 -173 -94 -2 2 -24 35
-50 73 -96 141 -237 299 -370 416 -52 46 -95 86 -95 90 0 4 56 84 125 178 69
95 125 175 125 179 -1 14 -122 94 -129 86 -5 -5 -63 -85 -131 -177 -67 -92
-125 -167 -129 -165 -5 2 -67 36 -139 77 l-130 73 28 67 c16 36 53 124 84 195
31 72 56 133 56 138 0 4 -15 14 -32 22 -18 8 -49 21 -69 30 l-37 15 -82 -192
c-46 -106 -86 -195 -89 -199 -4 -5 -60 10 -124 31 -180 61 -355 96 -579 116
l-68 7 0 197 0 198 45 17 c64 25 140 111 161 184 43 148 -33 310 -172 362 -65
24 -159 25 -221 3z m17 -1238 l0 -105 80 0 80 0 0 106 0 106 48 -6 c26 -3 79
-8 117 -11 110 -10 305 -52 422 -91 60 -20 110 -38 112 -40 2 -2 -15 -47 -39
-99 -24 -52 -41 -97 -38 -100 2 -2 33 -18 69 -34 l64 -30 43 92 c24 51 46 94
48 96 7 7 143 -63 192 -99 27 -19 42 -37 38 -45 -3 -8 -31 -49 -62 -90 -31
-42 -55 -77 -53 -79 36 -28 117 -86 122 -86 4 0 35 38 71 85 l64 85 105 -95
c120 -108 248 -250 324 -362 l52 -76 -93 -55 -93 -54 39 -67 c21 -36 43 -65
48 -64 5 2 38 20 72 41 119 73 102 77 158 -40 63 -132 114 -286 146 -445 14
-69 24 -127 22 -128 -2 -2 -48 -8 -102 -14 -55 -7 -101 -13 -103 -14 -1 -2 1
-37 5 -78 8 -85 -5 -79 138 -65 l82 7 6 -93 c7 -82 -2 -169 -17 -184 -3 -3
-47 -1 -98 5 -52 6 -96 7 -100 3 -4 -4 -9 -39 -13 -79 l-6 -71 48 -6 c26 -3
73 -8 105 -12 31 -3 57 -9 57 -11 0 -3 -11 -61 -25 -128 -32 -157 -82 -312
-145 -443 -56 -117 -39 -113 -158 -40 -34 21 -67 39 -72 41 -5 1 -27 -28 -48
-64 l-39 -66 94 -55 93 -54 -60 -88 c-97 -142 -209 -271 -343 -394 l-68 -63
-65 85 c-35 47 -67 86 -70 86 -3 0 -32 -21 -65 -46 l-59 -45 30 -42 c17 -23
46 -63 65 -88 l35 -46 -39 -26 c-22 -15 -76 -47 -121 -71 l-81 -45 -40 85
c-21 47 -39 90 -39 94 0 20 -21 18 -86 -7 -38 -14 -71 -28 -73 -29 -2 -2 15
-47 39 -99 24 -52 41 -97 39 -99 -9 -8 -228 -77 -289 -91 -74 -16 -240 -41
-342 -50 l-68 -6 0 106 0 105 -80 0 -80 0 0 -105 0 -106 -67 6 c-103 9 -269
34 -343 50 -61 14 -280 83 -289 91 -2 2 15 47 39 99 24 52 41 97 38 100 -2 2
-33 18 -69 34 l-64 30 -43 -92 c-24 -51 -46 -94 -48 -96 -7 -7 -143 63 -192
99 -27 19 -42 37 -38 45 3 8 31 49 62 90 31 42 55 77 53 79 -76 60 -121 87
-132 78 -6 -6 -39 -47 -72 -91 -33 -44 -63 -79 -67 -78 -20 5 -255 237 -321
316 -75 89 -162 210 -155 215 1 2 40 25 85 50 46 26 85 52 89 57 3 5 -11 39
-32 74 l-38 64 -30 -18 c-95 -58 -152 -89 -157 -85 -14 8 -89 174 -122 269
-34 98 -79 279 -91 361 l-6 41 73 7 c39 4 87 9 104 13 l33 5 -6 57 c-11 112
-1 104 -113 96 l-98 -7 -7 93 c-7 83 2 170 17 185 3 3 47 1 98 -5 52 -6 96 -7
100 -3 4 4 9 39 13 79 l6 71 -48 6 c-26 3 -73 8 -104 12 -32 3 -58 9 -58 11 0
3 11 61 25 128 32 157 82 312 145 443 56 117 38 113 160 39 36 -22 68 -41 72
-43 3 -2 23 26 43 62 43 77 47 70 -68 137 l-78 45 47 68 c103 152 221 284 343
386 l94 77 64 -84 c35 -47 66 -85 70 -85 5 0 86 58 122 86 2 2 -16 29 -39 61
-24 32 -54 72 -67 89 l-23 31 73 45 c81 52 164 94 171 87 2 -2 24 -45 48 -96
l43 -92 64 30 c36 16 67 32 69 34 3 3 -14 48 -38 100 -24 52 -41 97 -39 99 2
2 52 20 112 40 160 53 373 93 565 105 21 1 22 -1 22 -104z"/>
<path d="M3335 5094 c-311 -45 -541 -132 -762 -287 -113 -79 -301 -267 -380
-380 -127 -181 -228 -421 -269 -642 -29 -151 -26 -452 5 -595 124 -582 517
-1026 1067 -1209 183 -60 288 -76 504 -76 214 0 318 16 500 75 548 179 947
630 1071 1210 20 90 23 135 23 310 0 175 -3 220 -23 310 -48 227 -140 441
-264 617 -79 113 -267 301 -380 380 -192 135 -414 227 -662 273 -61 12 -376
22 -430 14z m391 -299 c272 -48 519 -180 717 -384 186 -193 307 -427 352 -685
19 -114 20 -337 0 -450 -82 -471 -428 -873 -877 -1020 -147 -48 -259 -66 -418
-66 -369 0 -691 137 -945 401 -186 195 -305 426 -350 683 -20 115 -20 337 0
452 33 189 117 386 232 546 112 155 307 320 481 407 85 43 250 97 348 115 108
20 349 20 460 1z"/>
<path d="M3456 4220 c-88 -27 -128 -150 -70 -220 50 -59 114 -75 180 -44 47
23 74 70 74 132 0 43 -5 57 -31 86 -17 20 -47 40 -67 46 -42 11 -47 11 -86 0z"/>
<path d="M3423 3620 c-62 -37 -63 -44 -63 -412 0 -312 1 -335 20 -365 28 -46
65 -67 120 -67 55 0 92 21 120 67 19 30 20 53 20 365 0 368 -1 375 -63 412
-19 12 -50 20 -77 20 -27 0 -58 -8 -77 -20z"/>
</g>
</svg>
